<svg xmlns="http://www.w3.org/2000/svg" viewBox="0 0 600 840"><defs><linearGradient id="g" x2="1" y2="1"><stop stop-color="#1e1b4b"/><stop offset="1" stop-color="#030306"/></linearGradient></defs><rect width="600" height="840" fill="url(#g)"/><circle cx="430" cy="170" r="130" fill="#8b5cf6" opacity=".18"/><path d="M85 840c17-258 90-397 216-421 130 28 200 168 214 421Z" fill="#0e0c18"/><circle cx="301" cy="290" r="115" fill="#9f8cae"/><path d="M180 292c3-190 228-194 246-24-82-58-163-58-246 24Z" fill="#090812"/><path d="m182 280 120 105 124-112v116H180Z" fill="#181428"/><path d="M231 303c26 11 48 11 70 0m20 0c18 8 35 8 50 0" stroke="#a78bfa" stroke-width="5"/><path d="m92 650 204 61 222-71" fill="none" stroke="#4c1d95" stroke-width="24"/></svg>
