<svg xmlns="http://www.w3.org/2000/svg" viewBox="0 0 800 540"><defs><linearGradient id="s" y2="1"><stop stop-color="#082f49"/><stop offset="1" stop-color="#38bdf8"/></linearGradient></defs><rect width="800" height="540" fill="url(#s)"/><circle cx="630" cy="110" r="70" fill="#fde68a"/><path d="M0 360q100-65 200 0t200 0 200 0 200 0v180H0Z" fill="#0c4a6e"/><path d="M0 430q100-65 200 0t200 0 200 0 200 0v110H0Z" fill="#172554"/><path d="m300 392 90-188 105 188Z" fill="#171327"/><path d="M390 204v-80l150 80Z" fill="#fda4af"/><path d="M390 124v268" stroke="#e0f2fe" stroke-width="7"/><path d="M250 392h330l-70 69H310Z" fill="#422006"/><g fill="#fff"><circle cx="120" cy="100" r="3"/><circle cx="220" cy="180" r="2"/></g></svg>
